<?xml version="1.0" encoding="UTF-8"?><svg id="Layer_1" xmlns="http://www.w3.org/2000/svg" viewBox="0 0 240 240"><defs><style>.cls-1{fill:#db9d4b;}.cls-1,.cls-2,.cls-3,.cls-4{stroke-width:0px;}.cls-2{fill:#603c12;}.cls-3{fill:#fabf68;}.cls-4{fill:#c58836;}</style></defs><path class="cls-1" d="m120,73.69c4.42,1.22,8.85,2.41,13.26,3.65,17.13,4.82,34.26,9.66,51.39,14.48.86.24,1.43.64,1.92,1.43,5.96,9.65,11.95,19.28,17.93,28.92.33.54.73,1.05.86,1.7-.36.95-1.02,1.55-2.02,1.86-1.29.4-2.57.87-3.84,1.34-10.2,3.8-20.39,7.6-30.59,11.4-4.14,1.54-8.29,3.05-12.44,4.58-5.01,1.86-10.01,3.73-15.01,5.59-1.04.39-1.76.02-2.32-.89-1.58-2.58-3.18-5.16-4.78-7.73-3.84-6.2-7.64-12.43-11.54-18.59-.97-1.53-1.64-3.29-3.05-4.53,0-.09,0-.17-.01-.26.3-14.31-.36-28.63.24-42.94Zm58.76,43.65c-2.54-2.18-5.17-4.25-7.58-6.57-1.26-1.21-2.31-1.28-3.77-.6-.88.41-.9.68-.44,1.44,2.29,3.75,4.54,7.52,6.78,11.29,1.23,2.06,1.21,2.04,3.43,1.18.63-.24.58-.48.3-.94-.63-1.02-1.26-2.04-1.85-3.08-1.07-1.89-2.35-3.64-3.51-5.47,2.56,2.05,5.13,4.07,7.47,6.33,1.39,1.35,2.63,1.58,4.28.69.61-.33.62-.53.3-1.04-2.41-4-4.8-8.01-7.21-12.02-.94-1.57-.93-1.5-2.71-.94-1.09.34-1.02.75-.5,1.58,1.69,2.69,3.19,5.51,5.01,8.15Zm6.82-13.4c-2.24.02-4.16,1.09-6.19,1.78-.6.2-.37.58-.16.95,2.6,4.35,5.21,8.69,7.8,13.04.2.34.37.57.84.37,1.47-.62,3-1.1,4.42-1.81,1.75-.87,2.64-2.37,2.55-4.38-.1-2.08-1.06-3.83-2.19-5.49-1.7-2.52-3.87-4.34-7.09-4.46Zm-32.36,29.02c3.47.02,5.45-2.36,4.69-5.73-.69-3.04-2.32-5.57-4.57-7.7-1.19-1.12-2.6-1.83-4.22-2.09-3.4-.56-6.08,2.05-5.39,5.4.78,3.79,2.83,6.81,6.01,9.02,1.03.72,2.21,1.09,3.48,1.1Zm12.18-4.58c.08,0,.16,0,.24,0,3.25-.29,6.15-2.19,4.13-6.53-.25-.54-.53-1.08-.83-1.59-1.34-2.27-2.69-4.53-4.05-6.79-1.23-2.04-1.23-2.02-3.44-1.02-.47.21-.63.35-.3.84.49.72.91,1.5,1.35,2.26,1.4,2.37,2.82,4.73,4.18,7.13.41.72.54,1.55-.24,2.18-.79.63-1.62.56-2.44.03-.73-.47-1.17-1.19-1.6-1.91-1.56-2.6-3.11-5.21-4.68-7.8-.23-.37-.33-1.07-.95-.9-.87.24-1.72.62-2.54,1-.2.09.03.36.12.51,1.95,3.21,3.82,6.46,5.88,9.6,1.18,1.79,2.88,2.98,5.17,3.01Zm-22.01,1.26c-.46-.74-.85-1.61-1.46-2.27-.38-.42-.93.22-1.41.32-.35.07-.68.23-1.01.36q-2.72,1.04-4.11-1.47s-.04-.07-.06-.1c-.39-.53-.25-.81.38-1.02.99-.32,1.94-.73,2.91-1.1,2.2-.85,2.18-.83.96-2.85-.35-.58-.62-.62-1.22-.39-2.3.9-4.62,1.78-6.96,2.57-1.1.37-1.06.79-.53,1.66,2.26,3.67,4.45,7.39,6.67,11.08,1.29,2.15,1.29,2.13,3.59,1.19.54-.22.68-.37.33-.91-.8-1.24-1.49-2.55-2.3-3.79-.53-.81-.59-1.28.5-1.59,1.07-.3,2.1-.76,3.14-1.17.23-.09.6-.04.58-.52Z"/><path class="cls-3" d="m119.71,201.91c-3.83-1.13-7.54-2.62-11.29-3.96-14.02-5.02-28.01-10.11-42.01-15.16-2.55-.92-5.1-1.87-7.67-2.73-1.12-.38-1.59-1.09-1.62-2.22-.16-5.23-.33-10.46-.52-15.69-.31-8.3-.62-16.6-.97-24.9-.05-1.28-.19-2.55-.14-3.83,5.31,1.95,10.63,3.88,15.94,5.84,8.94,3.3,17.87,6.61,26.8,9.93,1.54.57,2.16.42,3.01-.94,3.84-6.16,7.65-12.33,11.49-18.49,2.34-3.75,4.7-7.49,7.05-11.23,0,4.32-.01,8.64-.02,12.96-3.68.45-5.94,2.98-6.02,6.69-.04,2.01.6,3.85,1.45,5.63.26.54.21.82-.28,1.18-.91.66-1.72,1.42-2.41,2.32-3.27,4.24-1.66,10.17,3.25,11.97,1.3.48,2.64.6,4,.61.18,6.1-.1,12.21.17,18.32.16,3.49-.15,7.02-.16,10.53,0,4.4-.04,8.79-.06,13.19Z"/><path class="cls-1" d="m119.75,131.48c0-4.32.01-8.64.02-12.96,1.04.82,1.52,2.04,2.2,3.12,3.35,5.33,6.66,10.67,9.99,16.02,2.31,3.72,4.61,7.45,6.94,11.16.69,1.1,1.43,1.3,2.63.84.89-.34,1.8-.65,2.69-.98,7.68-2.83,15.36-5.66,23.04-8.49,5.68-2.09,11.36-4.18,17.03-6.27-.41,11.14-.82,22.28-1.25,33.42-.13,3.47-.48,6.93-.4,10.4.03,1.19-.48,1.91-1.64,2.32-10.42,3.72-20.83,7.47-31.23,11.22-9.69,3.49-19.38,7-29.07,10.49-.31.11-.62.45-.99.13.02-4.39.05-8.79.06-13.19,0-3.51.31-7.04.16-10.53-.28-6.11,0-12.22-.17-18.32,2.3-.12,4.4-.81,6.22-2.21.58-.45,1.01-.54,1.67-.08.88.61,1.86,1.1,2.83,1.55,2.03.94,2.04.91,2.69-1.16.07-.23.12-.47.22-.68.43-.95.39-1.61-.83-1.9-.68-.16-1.27-.66-1.92-.96-.87-.39-1.04-.82-.47-1.7,1.51-2.33,2.44-4.93,3.26-7.57.23-.73.12-1.02-.71-.96-.79.06-1.6.07-2.4,0-.87-.08-1.26.2-1.46,1.1-.42,1.83-1.13,3.57-2.04,5.23-.33.61-.57.73-1.13.21-1.57-1.48-3.08-3.02-4.46-4.69-.59-.71-.47-1.05.24-1.59,1.57-1.18,3.05-2.47,3.95-4.28,1.88-3.77.07-7.81-3.88-8.57-.58-.11-1.19-.09-1.79-.13Z"/><path class="cls-3" d="m119.76,116.63c0,.09,0,.17.01.26-2.49,4-4.97,8-7.46,12-3.91,6.31-7.83,12.61-11.74,18.92-.53.85-1.25,1.2-2.24.85-.45-.16-.91-.3-1.36-.47-9.72-3.61-19.44-7.23-29.16-10.84-7.11-2.64-14.21-5.27-21.32-7.89-3.81-1.41-7.64-2.79-11.45-4.18,0,0,.02.02.02.02-.08-.16-.15-.33-.23-.49-.5-.78-.26-1.51.18-2.22,5.61-9.04,11.22-18.08,16.83-27.12.55-.88,1.09-1.76,1.64-2.64.18-.29.29-.68.75-.67.23.14.45.34.7.43,3.85,1.43,7.71,2.84,11.57,4.26,8.64,3.2,17.28,6.4,25.92,9.61,9.12,3.39,18.24,6.79,27.36,10.18Zm-42.96-1.76c.04-2.2-1.04-3.73-3.13-4.42-1.75-.57-3.43-.31-4.94.64-3.5,2.19-5.6,5.44-6.29,9.46-.59,3.43,2.08,5.83,5.55,5.27,4.07-.66,8.73-6.46,8.81-10.95Zm7.64.3c-1.33-.06-2.54.3-3.63,1.05-2.61,1.82-2.97,4.57-.92,6.98.62.73,1.24,1.46,1.86,2.2.45.55.57,1.14.17,1.77-.39.61-.98.82-1.65.73-1.12-.16-2-.73-2.74-1.58-.4-.46-.46-1.39-1.11-1.39-.57,0-1.14.51-1.72.8-.14.07-.28.16-.43.21-.62.2-.66.55-.4,1.1,1.21,2.47,3.27,3.7,5.93,3.84,2.43.13,4.34-.93,5.59-3.05.93-1.58.81-3.14-.34-4.56-.73-.9-1.52-1.75-2.28-2.63-.42-.48-.69-1.01-.37-1.63.33-.64.92-.87,1.61-.82,1.01.07,2.01.45,2.45,1.3.72,1.4,1.48,1.03,2.4.37.16-.11.34-.22.53-.28.65-.21.6-.6.35-1.11-1.08-2.21-2.93-3.17-5.29-3.3Zm6.83,20.38c.48,0,.54-.43.72-.72,1.81-3.01,3.61-6.04,5.41-9.05q1.07-1.79,3.03-1.01,2.18.87,3.27-1.2s.04-.07.06-.1c.32-.44.19-.69-.31-.88-3.27-1.29-6.53-2.59-9.79-3.9-.46-.18-.75-.11-.98.33-.18.36-.37.72-.61,1.03-.64.81-.66,1.34.5,1.62.65.16,1.25.55,1.9.72.88.24.88.58.43,1.31-2.02,3.31-3.99,6.65-5.95,9.99-.15.25-.66.6-.1.87.78.39,1.62.67,2.43.99Zm-30.91-29.75c.09-.36-.21-.37-.41-.46-.48-.2-.99-.34-1.44-.59-.74-.42-1.14-.29-1.59.48-2.49,4.27-5.04,8.51-7.59,12.75-.36.59-.31.83.38,1.08,2.06.75,4.08,1.6,6.13,2.39,2.19.85,2.19.84,3.31-1.2.02-.03.04-.07.07-.1.38-.47.14-.66-.32-.83-1.45-.56-2.87-1.19-4.34-1.71-.83-.29-.9-.6-.45-1.34,1.94-3.16,3.82-6.36,5.71-9.55.18-.31.36-.62.54-.93Z"/><path class="cls-4" d="m119.76,116.63c-9.12-3.39-18.24-6.79-27.36-10.18-8.64-3.21-17.28-6.41-25.92-9.61-3.85-1.43-7.71-2.84-11.57-4.26-.25-.09-.47-.28-.7-.43,5.52-1.58,11.04-3.18,16.57-4.74,15.9-4.49,31.8-8.96,47.71-13.43.49-.14.97-.4,1.51-.29-.6,14.31.06,28.63-.24,42.94Z"/><path class="cls-4" d="m35.04,125.28c3.82,1.39,7.64,2.78,11.45,4.18,7.11,2.62,14.22,5.26,21.32,7.89,9.72,3.61,19.44,7.23,29.16,10.84.45.17.91.31,1.36.47.99.34,1.71,0,2.24-.85,3.91-6.31,7.83-12.61,11.74-18.92,2.48-4,4.97-8,7.46-12,1.41,1.24,2.08,2.99,3.05,4.53,3.9,6.16,7.71,12.39,11.54,18.59,1.59,2.58,3.19,5.15,4.78,7.73.55.91,1.28,1.28,2.32.89,5-1.87,10.01-3.73,15.01-5.59,4.14-1.54,8.29-3.04,12.44-4.58,10.2-3.79,20.39-7.6,30.59-11.4,1.27-.47,2.54-.94,3.84-1.34.99-.31,1.65-.9,2.02-1.86.19,1.59-.16,2.12-1.92,2.79-5.64,2.13-11.28,4.25-16.92,6.38-.75.28-1.48.59-2.23.88-5.68,2.09-11.36,4.18-17.03,6.27-7.68,2.83-15.36,5.66-23.04,8.49-.9.33-1.8.64-2.69.98-1.21.46-1.94.26-2.63-.84-2.33-3.71-4.63-7.44-6.94-11.16-3.32-5.34-6.64-10.69-9.99-16.02-.67-1.07-1.15-2.3-2.2-3.12-2.35,3.74-4.72,7.48-7.05,11.23-3.84,6.16-7.65,12.33-11.49,18.49-.85,1.36-1.47,1.51-3.01.94-8.93-3.32-17.86-6.63-26.8-9.93-5.31-1.96-10.63-3.9-15.94-5.84-4.43-1.67-8.86-3.35-13.29-5.02-1.9-.72-3.81-1.41-5.72-2.12-.56-.21-1.14-.4-1.43-.99Z"/><path class="cls-2" d="m178.76,117.35c-1.82-2.64-3.31-5.46-5.01-8.15-.52-.82-.58-1.24.5-1.58,1.79-.56,1.77-.63,2.71.94,2.4,4.01,4.79,8.02,7.21,12.02.31.52.3.72-.3,1.04-1.65.89-2.89.65-4.28-.69-2.34-2.26-4.91-4.28-7.47-6.33,1.17,1.84,2.45,3.59,3.51,5.47.59,1.04,1.22,2.06,1.85,3.08.28.46.33.7-.3.94-2.22.86-2.2.88-3.43-1.18-2.25-3.77-4.49-7.55-6.78-11.29-.47-.76-.44-1.03.44-1.44,1.47-.68,2.52-.61,3.77.6,2.41,2.32,5.04,4.39,7.58,6.57Z"/><path class="cls-2" d="m185.58,103.94c3.21.12,5.38,1.94,7.09,4.46,1.12,1.66,2.08,3.41,2.19,5.49.1,2.01-.79,3.51-2.55,4.38-1.42.71-2.95,1.19-4.42,1.81-.47.2-.64-.03-.84-.37-2.6-4.35-5.2-8.69-7.8-13.04-.22-.36-.44-.74.16-.95,2.03-.69,3.95-1.76,6.19-1.78Zm-.08,3c-.39.05-.8.07-1.18.16-.6.14-.9.35-.47,1.06,1.57,2.54,3.09,5.12,4.6,7.7.31.54.63.57,1.16.33,1.41-.65,2.02-1.78,1.57-3.32-.52-1.79-1.45-3.36-2.79-4.67-.79-.77-1.72-1.3-2.89-1.25Z"/><path class="cls-2" d="m153.22,132.97c-1.27-.01-2.45-.38-3.48-1.1-3.18-2.21-5.23-5.23-6.01-9.02-.69-3.34,1.99-5.96,5.39-5.4,1.62.27,3.03.97,4.22,2.09,2.25,2.13,3.88,4.66,4.57,7.7.76,3.37-1.22,5.74-4.69,5.73Zm1.34-5.1c-.62-2.57-1.95-5.1-4.41-6.92-.74-.55-1.63-.76-2.45-.12-.78.61-.71,1.48-.44,2.31.72,2.24,1.91,4.21,3.64,5.82.53.49,1.15.87,1.9.92,1.08.07,1.73-.55,1.75-2.01Z"/><path class="cls-2" d="m165.4,128.39c-2.29-.03-4-1.22-5.17-3.01-2.06-3.13-3.93-6.39-5.88-9.6-.09-.16-.33-.42-.12-.51.83-.38,1.67-.76,2.54-1,.62-.17.72.53.95.9,1.58,2.59,3.12,5.2,4.68,7.8.43.72.87,1.44,1.6,1.91.83.53,1.66.6,2.44-.03.78-.62.65-1.46.24-2.18-1.36-2.4-2.78-4.75-4.18-7.13-.45-.76-.86-1.53-1.35-2.26-.33-.49-.17-.62.3-.84,2.21-1,2.21-1.02,3.44,1.02,1.36,2.26,2.71,4.52,4.05,6.79.3.51.58,1.05.83,1.59,2.02,4.35-.88,6.24-4.13,6.53-.08,0-.16,0-.24,0Z"/><path class="cls-2" d="m143.38,129.65c.02.48-.36.43-.58.52-1.04.41-2.07.87-3.14,1.17-1.09.31-1.03.77-.5,1.59.81,1.23,1.5,2.55,2.3,3.79.35.54.21.69-.33.91-2.3.95-2.3.97-3.59-1.19-2.22-3.7-4.41-7.41-6.67-11.08-.54-.87-.57-1.29.53-1.66,2.35-.78,4.66-1.66,6.96-2.57.6-.24.88-.19,1.22.39,1.21,2.02,1.24,2.01-.96,2.85-.97.37-1.92.78-2.91,1.1-.63.21-.77.49-.38,1.02.02.03.04.07.06.1q1.4,2.5,4.11,1.47c.34-.13.67-.29,1.01-.36.49-.1,1.03-.73,1.41-.32.61.66,1,1.53,1.46,2.27Z"/><path class="cls-2" d="m119.75,131.48c.6.04,1.21.02,1.79.13,3.95.77,5.76,4.8,3.88,8.57-.9,1.81-2.39,3.1-3.95,4.28-.71.53-.82.88-.24,1.59,1.38,1.67,2.88,3.21,4.46,4.69.56.52.79.4,1.13-.21.9-1.66,1.62-3.4,2.04-5.23.21-.89.6-1.17,1.46-1.1.79.07,1.6.06,2.4,0,.83-.07.94.23.71.96-.82,2.64-1.75,5.24-3.26,7.57-.57.88-.4,1.31.47,1.7.65.3,1.25.79,1.92.96,1.22.3,1.26.96.83,1.9-.1.22-.15.45-.22.68-.64,2.07-.66,2.09-2.69,1.16-.98-.45-1.95-.94-2.83-1.55-.66-.45-1.08-.37-1.67.08-1.83,1.41-3.93,2.1-6.22,2.21-1.36-.01-2.71-.13-4-.61-4.91-1.81-6.52-7.73-3.25-11.97.69-.89,1.51-1.66,2.41-2.32.49-.36.54-.64.28-1.18-.85-1.77-1.49-3.61-1.45-5.63.07-3.71,2.34-6.24,6.02-6.69Zm0,3.44c-.94.19-1.37.89-1.64,1.71-.46,1.38-.27,2.74.17,4.09.53,1.64.59,1.65,1.78.41,1.3-.79,2.02-1.99,2.24-3.46.28-1.83-.72-2.87-2.55-2.75Zm.03,16c-.61-1.15-1.55-2.03-2.27-3.12-1.94,1.94-2.49,3.84-1.74,5.7.63,1.55,2.09,2.46,3.99,2.48,1.22.13,2.25-.37,3.22-1.02.35-.23.53-.46.13-.83-1.12-1.06-2.23-2.14-3.34-3.21Z"/><path class="cls-2" d="m76.8,114.87c-.08,4.5-4.75,10.29-8.81,10.95-3.47.56-6.14-1.84-5.55-5.27.69-4.02,2.79-7.26,6.29-9.46,1.51-.95,3.19-1.21,4.94-.64,2.09.68,3.17,2.21,3.13,4.42Zm-3.53.17c-.01-1.33-.95-2.06-2.22-1.69-.37.11-.76.29-1.06.53-2.16,1.78-3.53,4.07-4.16,6.79-.16.7.02,1.36.63,1.82.61.46,1.26.39,1.93.12,2.02-.84,4.91-5.32,4.88-7.57Z"/><path class="cls-2" d="m84.44,115.17c2.36.13,4.21,1.09,5.29,3.3.25.51.29.9-.35,1.11-.19.06-.37.17-.53.28-.92.65-1.68,1.03-2.4-.37-.44-.85-1.44-1.23-2.45-1.3-.69-.05-1.27.18-1.61.82-.33.63-.06,1.15.37,1.63.76.87,1.55,1.73,2.28,2.63,1.15,1.42,1.27,2.98.34,4.56-1.25,2.12-3.16,3.18-5.59,3.05-2.65-.14-4.72-1.37-5.93-3.84-.27-.55-.22-.9.4-1.1.15-.05.29-.14.43-.21.57-.29,1.15-.8,1.72-.8.65,0,.71.93,1.11,1.39.74.85,1.63,1.42,2.74,1.58.68.1,1.27-.12,1.65-.73.4-.63.29-1.22-.17-1.77-.61-.74-1.23-1.47-1.86-2.2-2.06-2.41-1.7-5.17.92-6.98,1.09-.75,2.29-1.11,3.63-1.05Z"/><path class="cls-2" d="m91.27,135.55c-.81-.32-1.65-.6-2.43-.99-.56-.28-.05-.62.1-.87,1.97-3.34,3.93-6.68,5.95-9.99.45-.73.45-1.07-.43-1.31-.65-.18-1.25-.57-1.9-.72-1.16-.28-1.14-.81-.5-1.62.25-.31.43-.67.61-1.03.23-.45.52-.52.98-.33,3.26,1.31,6.52,2.61,9.79,3.9.5.2.63.44.31.88-.02.03-.04.07-.06.1q-1.09,2.07-3.27,1.2-1.96-.78-3.03,1.01c-1.8,3.02-3.6,6.04-5.41,9.05-.17.29-.24.71-.72.72Z"/><path class="cls-2" d="m60.37,105.8c-.18.31-.36.62-.54.93-1.9,3.19-3.78,6.39-5.71,9.55-.45.74-.38,1.04.45,1.34,1.47.52,2.89,1.15,4.34,1.71.46.18.7.37.32.83-.02.03-.05.07-.07.1-1.12,2.04-1.13,2.05-3.31,1.2-2.04-.79-4.07-1.64-6.13-2.39-.7-.25-.74-.49-.38-1.08,2.55-4.24,5.1-8.48,7.59-12.75.45-.77.85-.9,1.59-.48.45.25.96.39,1.44.59.2.08.5.1.41.46Z"/><path class="cls-1" d="m185.5,106.94c1.17-.05,2.1.49,2.89,1.25,1.34,1.3,2.27,2.88,2.79,4.67.45,1.54-.16,2.67-1.57,3.32-.53.25-.84.21-1.16-.33-1.51-2.58-3.03-5.15-4.6-7.7-.43-.7-.13-.92.47-1.06.39-.09.79-.11,1.18-.16Z"/><path class="cls-1" d="m154.56,127.87c-.02,1.46-.67,2.07-1.75,2.01-.76-.05-1.37-.42-1.9-.92-1.74-1.61-2.92-3.57-3.64-5.82-.26-.83-.34-1.7.44-2.31.81-.64,1.71-.43,2.45.12,2.45,1.82,3.78,4.34,4.41,6.92Z"/><path class="cls-3" d="m119.76,155.99c-1.9-.02-3.36-.93-3.99-2.48-.75-1.86-.2-3.76,1.74-5.7.72,1.09,1.67,1.97,2.27,3.12,0,1.69-.01,3.38-.02,5.06Z"/><path class="cls-1" d="m119.75,134.93c1.82-.12,2.82.92,2.55,2.75-.22,1.46-.94,2.66-2.24,3.46-.26-2.06-.32-4.13-.31-6.21Z"/><path class="cls-3" d="m119.75,134.93c-.01,2.08.05,4.15.31,6.21-1.2,1.24-1.25,1.23-1.78-.41-.44-1.35-.63-2.71-.17-4.09.27-.82.71-1.51,1.64-1.71Z"/><path class="cls-1" d="m119.76,155.99c0-1.69.01-3.38.02-5.06,1.11,1.07,2.21,2.15,3.34,3.21.4.38.22.6-.13.83-.98.66-2,1.15-3.22,1.02Z"/><path class="cls-3" d="m73.27,115.04c.02,2.25-2.87,6.73-4.88,7.57-.66.28-1.32.34-1.93-.12-.61-.46-.79-1.12-.63-1.82.64-2.72,2-5.01,4.16-6.79.3-.25.68-.43,1.06-.53,1.27-.37,2.21.36,2.22,1.69Z"/></svg>